<svg width="512" height="406" viewBox="0 0 512 406" fill="none" xmlns="http://www.w3.org/2000/svg">
<g clip-path="url(#clip0)">
<path d="M405.967 142.112C404.898 64.051 341.065 0.873047 262.754 0.873047C227.919 0.873047 194.358 13.545 168.256 36.555C144.96 57.09 129.024 84.532 122.713 114.661C122.252 114.656 121.795 114.652 121.339 114.652C54.434 114.652 0 169.085 0 235.991C0 302.897 54.434 357.33 121.34 357.33H206.083C212.112 357.33 217.002 352.442 217.002 346.411C217.002 340.38 212.112 335.492 206.083 335.492H121.34C66.474 335.492 21.838 290.856 21.838 235.991C21.838 181.126 66.474 136.49 121.34 136.49C124.263 136.49 127.353 136.647 130.788 136.97C136.61 137.515 141.837 133.374 142.63 127.574C146.562 98.754 160.791 72.247 182.697 52.936C204.808 33.444 233.239 22.71 262.753 22.71C329.688 22.71 384.142 77.165 384.142 144.099C384.142 146.509 383.963 148.993 383.774 151.623L383.693 152.741C383.466 155.953 384.668 159.102 386.98 161.345C389.289 163.588 392.468 164.696 395.677 164.375C398.581 164.082 401.511 163.935 404.385 163.935C451.682 163.935 490.163 202.415 490.163 249.713C490.163 297.01 451.683 335.49 404.385 335.49H315.274C309.245 335.49 304.355 340.378 304.355 346.409C304.355 352.44 309.245 357.33 315.274 357.33H404.385C463.724 357.33 512.001 309.053 512.001 249.713C512.001 190.906 464.58 142.961 405.967 142.112Z" fill="#494E61"/>
<path d="M262.755 52.1921C217.097 52.1921 178.013 86.3131 171.841 131.559C171.026 137.534 175.21 143.039 181.184 143.854C181.685 143.922 182.182 143.956 182.673 143.956C188.048 143.956 192.732 139.986 193.477 134.512C198.18 100.032 227.963 74.0301 262.754 74.0301C268.785 74.0301 273.673 69.1421 273.673 63.1111C273.673 57.0811 268.785 52.1921 262.755 52.1921Z" fill="#494E61"/>
<path d="M312.41 267.052L272.692 231.572C265.845 225.452 255.515 225.453 248.665 231.571L208.947 267.053C204.449 271.07 204.061 277.973 208.078 282.471C212.095 286.967 218.997 287.358 223.496 283.34L249.76 259.878V394.209C249.76 400.24 254.648 405.128 260.679 405.128C266.709 405.128 271.598 400.24 271.598 394.209V259.876L297.863 283.339C299.945 285.2 302.544 286.115 305.133 286.115C308.135 286.115 311.123 284.886 313.281 282.47C317.296 277.972 316.907 271.07 312.41 267.052Z" fill="#494E61"/>
</g>
<defs>
<clipPath id="clip0">
<rect width="512" height="406" fill="white"/>
</clipPath>
</defs>
</svg>
