<svg width="512" height="512" viewBox="0 0 512 512" fill="none" xmlns="http://www.w3.org/2000/svg">
<path d="M469.333 0H42.667C18.773 0 0 18.773 0 42.667V469.334C0 493.227 18.773 512 42.667 512H238.934H341.334H469.334C493.227 512 512 493.227 512 469.333V42.667C512 18.773 493.227 0 469.333 0ZM256 494.933V324.267H187.733V256H256V196.267C256 147.627 293.547 106.667 341.333 102.4H418.133V170.667H349.866C335.359 170.667 324.266 181.76 324.266 196.267V256H409.6V324.267H324.267V494.934H256V494.933ZM494.933 469.333C494.933 483.84 483.84 494.933 469.333 494.933H341.333V341.333H426.666V238.933H341.333V196.266C341.333 191.146 344.746 187.733 349.866 187.733H435.2V85.333H340.48C283.307 90.453 238.933 139.093 238.933 196.266V238.933H170.666V341.333H238.933V494.933H42.667C28.16 494.933 17.067 483.84 17.067 469.333V42.667C17.067 28.16 28.16 17.067 42.667 17.067H469.334C483.841 17.067 494.934 28.16 494.934 42.667V469.333H494.933Z" fill="#494E61"/>
</svg>
