<svg width="512" height="512" viewBox="0 0 512 512" fill="none" xmlns="http://www.w3.org/2000/svg">
<path d="M366.08 0H145.92C65.707 0 0 65.707 0 145.92V366.08C0 446.293 65.707 512 145.92 512H366.08C446.293 512 512 446.293 512 366.08V145.92C512 65.707 446.293 0 366.08 0ZM494.933 366.08C494.933 436.907 436.906 494.933 366.08 494.933H145.92C75.093 494.933 17.067 436.906 17.067 366.08V145.92C17.067 75.093 75.094 17.067 145.92 17.067H366.08C436.907 17.067 494.933 75.094 494.933 145.92V366.08Z" fill="#494E61"/>
<path d="M366.08 51.2H145.92C93.867 51.2 51.2 93.867 51.2 145.92V366.08C51.2 418.133 93.867 460.8 145.92 460.8H366.08C418.133 460.8 460.8 418.133 460.8 366.08V145.92C460.8 93.867 418.133 51.2 366.08 51.2ZM443.733 366.08C443.733 408.747 408.746 443.733 366.08 443.733H145.92C103.253 443.733 68.2669 408.746 68.2669 366.08V145.92C68.2669 103.253 103.254 68.267 145.92 68.267H366.08C408.747 68.267 443.733 103.254 443.733 145.92V366.08Z" fill="#494E61"/>
<path d="M256 119.467C180.907 119.467 119.467 180.907 119.467 256C119.467 331.093 180.907 392.533 256 392.533C331.093 392.533 392.533 331.093 392.533 256C392.533 180.907 331.093 119.467 256 119.467ZM256 375.467C190.293 375.467 136.533 321.707 136.533 256C136.533 190.293 190.293 136.533 256 136.533C321.707 136.533 375.467 190.293 375.467 256C375.467 321.707 321.707 375.467 256 375.467Z" fill="#494E61"/>
<path d="M256 162.133C203.947 162.133 162.133 203.946 162.133 256C162.133 308.053 203.946 349.867 256 349.867C308.054 349.867 349.867 308.054 349.867 256C349.867 203.946 308.053 162.133 256 162.133ZM256 332.8C213.333 332.8 179.2 298.667 179.2 256C179.2 213.333 213.333 179.2 256 179.2C298.667 179.2 332.8 213.333 332.8 256C332.8 298.667 298.667 332.8 256 332.8Z" fill="#494E61"/>
<path d="M392.533 93.867C378.026 93.867 366.933 104.96 366.933 119.467C366.933 133.974 378.026 145.067 392.533 145.067C407.04 145.067 418.133 133.974 418.133 119.467C418.133 104.96 407.04 93.867 392.533 93.867Z" fill="#494E61"/>
</svg>
