<svg width="512" height="512" viewBox="0 0 512 512" fill="none" xmlns="http://www.w3.org/2000/svg">
<g clip-path="url(#clip0)">
<path d="M2.77145 263.896L162.771 423.896C167.134 428.258 174.2 428.258 178.562 423.896C182.924 419.533 182.924 412.467 178.562 408.105L37.6231 267.167L501.333 267.167C507.505 267.167 512.5 262.172 512.5 256C512.5 249.828 507.505 244.833 501.333 244.833L37.6231 244.833L178.562 103.896C182.924 99.5333 182.924 92.4667 178.562 88.1054C176.381 85.925 173.522 84.834 170.666 84.834C167.81 84.834 164.952 85.9251 162.771 88.1054L163.124 88.459L162.77 88.1055L2.77045 248.105C-1.59088 252.467 -1.59076 259.533 2.77145 263.896Z" fill="white" stroke="white"/>
</g>
<defs>
<clipPath id="clip0">
<rect x="512" y="512" width="512" height="512" transform="rotate(-180 512 512)" fill="white"/>
</clipPath>
</defs>
</svg>
