<svg width="62" height="62" viewBox="0 0 62 62" fill="none" xmlns="http://www.w3.org/2000/svg">
<g clip-path="url(#clip0)">
<path d="M30.938 26.584C34.797 26.584 37.938 23.443 37.938 19.584C37.938 15.725 34.797 12.584 30.938 12.584C27.079 12.584 23.938 15.725 23.938 19.584C23.938 23.443 27.078 26.584 30.938 26.584ZM30.938 14.584C33.695 14.584 35.938 16.827 35.938 19.584C35.938 22.341 33.695 24.584 30.938 24.584C28.181 24.584 25.938 22.341 25.938 19.584C25.938 16.827 28.181 14.584 30.938 14.584Z" fill="#494E61"/>
<path d="M50.216 37.584H43.055L46.102 33.184C51.857 25.513 51.024 12.904 44.321 6.202C40.7 2.58 35.884 0.584999 30.761 0.584999C25.639 0.584999 20.823 2.58 17.201 6.202C10.498 12.904 9.665 25.514 15.397 33.154L18.465 37.585H10.952L0 60.584H61.168L50.216 37.584ZM17.02 31.984C11.821 25.051 12.566 13.664 18.616 7.615C21.86 4.371 26.174 2.584 30.762 2.584C35.35 2.584 39.663 4.371 42.908 7.615C48.958 13.664 49.703 25.052 44.481 32.014L30.761 51.827L20.898 37.584L17.02 31.984ZM12.216 39.584H19.85L30.761 55.341L41.671 39.584H48.952L58 58.584H3.168L12.216 39.584Z" fill="#494E61"/>
</g>
<defs>
<clipPath id="clip0">
<rect width="61.168" height="61.168" fill="white"/>
</clipPath>
</defs>
</svg>
