<?xml version="1.0" encoding="UTF-8"?>
<svg width="35px" height="23px" viewBox="0 0 35 23" version="1.1" xmlns="http://www.w3.org/2000/svg" xmlns:xlink="http://www.w3.org/1999/xlink">
    <!-- Generator: Sketch 61 (89581) - https://sketch.com -->
    <title>Shape</title>
    <desc>Created with Sketch.</desc>
    <g id="Page-1" stroke="none" stroke-width="1" fill="none" fill-rule="evenodd">
        <g id="mail" stroke="#494E61">
            <path d="M33.2155675,22.3174603 L24.0369607,13.0701642 L22.1747717,14.9848432 C19.5868483,17.6407212 15.4714851,17.6407212 12.8832343,14.9845069 L11.0203744,13.069138 L1.78888669,22.3174603 L33.2155675,22.3174603 Z M34.5,20.6737613 L34.5,1.9290629 C33.7494699,2.7200322 32.4235937,4.0988533 30.1601621,6.4499891 C30.1498296,6.460722 30.1498296,6.460722 30.1394969,6.4714549 C29.0100586,7.6446404 27.7999703,8.9002653 26.5898854,10.1549971 C26.1663584,10.5941504 25.9041759,10.8659322 25.4201404,11.3676041 C25.3820023,11.4071259 25.3478708,11.4424958 25.3172314,11.4742469 L34.5,20.6737613 Z M0.5,20.7906407 L9.6827686,11.5911263 C9.6521292,11.5593752 9.6179977,11.5240053 9.5798596,11.4844835 C9.0958241,10.9828116 8.8336416,10.7110299 8.4101146,10.2718765 C7.2000297,9.0171447 5.9899414,7.7615198 4.8605031,6.5883343 C4.8501704,6.5776014 4.8501704,6.5776014 4.8398379,6.5668685 C2.5764063,4.2157327 1.25053011,2.8369117 0.5,2.0459424 L0.5,20.7906407 Z M33.2313451,0.5240093 C32.9073587,0.5234835 32.6769973,0.523121 31.9099861,0.5219143 C29.9524168,0.5188706 27.8384829,0.5158269 25.6465714,0.5129862 C22.836487,0.5093443 20.1045878,0.5063074 17.5286585,0.504077 C12.7702034,0.499994906 8.8065255,0.4988062 5.9029674,0.5013117 C4.2533038,0.5027352 2.9680837,0.5053297 2.0806808,0.5091796 C1.98719567,0.5095852 1.89817728,0.5100045 1.81366229,0.5104376 L14.2422901,13.2359199 C16.0300258,15.0795921 18.9756528,15.0795921 20.8172981,13.2346304 L33.2313451,0.5240093 Z" id="Shape"></path>
        </g>
    </g>
</svg>