<?xml version="1.0" encoding="UTF-8"?>
<svg width="35px" height="23px" viewBox="0 0 35 23" version="1.1" xmlns="http://www.w3.org/2000/svg" xmlns:xlink="http://www.w3.org/1999/xlink">
    <!-- Generator: Sketch 60.1 (88133) - https://sketch.com -->
    <title>Shape</title>
    <desc>Created with Sketch.</desc>
    <g id="Page-1" stroke="none" stroke-width="1" fill="none" fill-rule="evenodd">
        <g id="Artboard" transform="translate(-216.000000, -104.000000)" fill-rule="nonzero" stroke="#FFFFFF">
            <g id="Group" transform="translate(10.000000, 44.000000)">
                <g id="Text/Buttons" transform="translate(90.000000, 10.000000)">
                    <g id="Interactiv-Buttons" transform="translate(5.000000, 36.000000)">
                        <g id="Mail" transform="translate(103.000000, 0.000000)">
                            <path d="M41.2155675,36.3174603 L32.0369607,27.0701642 L30.1747717,28.9848432 C27.5868483,31.6407212 23.4714851,31.6407212 20.8832343,28.9845069 L19.0203744,27.069138 L9.78888669,36.3174603 L41.2155675,36.3174603 Z M8.84089496,36.3170189 C8.84082284,36.3170068 8.84075074,36.3169948 8.84067866,36.3169827 C8.84074949,36.3169945 8.84136533,36.3170291 8.84261432,36.3170745 Z M42.0820473,36.31491 C42.081846,36.3143786 42.083315,36.3139782 42.0832934,36.3139854 C42.0833047,36.3139816 42.0833161,36.3139778 42.0833275,36.313974 Z M42.5,34.6737613 L42.5,15.9290629 C41.7494699,16.7200322 40.4235937,18.0988533 38.1601621,20.4499891 C38.1498296,20.460722 38.1498296,20.460722 38.1394969,20.4714549 C37.0100586,21.6446404 35.7999703,22.9002653 34.5898854,24.1549971 C34.1663584,24.5941504 33.9041759,24.8659322 33.4201404,25.3676041 C33.3820023,25.4071259 33.3478708,25.4424958 33.3172314,25.4742469 L42.5,34.6737613 Z M8.5,34.7906407 L17.6827686,25.5911263 C17.6521292,25.5593752 17.6179977,25.5240053 17.5798596,25.4844835 C17.0958241,24.9828116 16.8336416,24.7110299 16.4101146,24.2718765 C15.2000297,23.0171447 13.9899414,21.7615198 12.8605031,20.5883343 C12.8501704,20.5776014 12.8501704,20.5776014 12.8398379,20.5668685 C10.5764063,18.2157327 9.25053011,16.8369117 8.5,16.0459424 L8.5,34.7906407 Z M41.2313451,14.5240093 C40.9073587,14.5234835 40.6769973,14.523121 39.9099861,14.5219143 C37.9524168,14.5188706 35.8384829,14.5158269 33.6465714,14.5129862 C30.836487,14.5093443 28.1045878,14.5063074 25.5286585,14.504077 C20.7702034,14.4999568 16.8065255,14.4988062 13.9029674,14.5013117 C12.2533038,14.5027352 10.9680837,14.5053297 10.0806808,14.5091796 C9.98719567,14.5095852 9.89817728,14.5100045 9.81366229,14.5104376 L22.2422901,27.2359199 C24.0300258,29.0795921 26.9756528,29.0795921 28.8172981,27.2346304 L41.2313451,14.5240093 Z" id="Shape"></path>
                        </g>
                    </g>
                </g>
            </g>
        </g>
    </g>
</svg>