<?xml version="1.0" encoding="UTF-8"?>
<svg width="22px" height="29px" viewBox="0 0 22 29" version="1.1" xmlns="http://www.w3.org/2000/svg" xmlns:xlink="http://www.w3.org/1999/xlink">
    <!-- Generator: Sketch 61 (89581) - https://sketch.com -->
    <title>phone</title>
    <desc>Created with Sketch.</desc>
    <g id="Page-1" stroke="none" stroke-width="1" fill="none" fill-rule="evenodd">
        <g id="phone" transform="translate(0.000000, 1.000000)" stroke="#494E61">
            <path d="M2.2038208,10.9112682 C3.4291162,13.7162377 5.3862133,16.8238222 6.994581,18.7902071 C8.7792683,21.0402436 10.9369449,23.2581305 12.9593417,24.6702906 C15.5477381,26.4651107 16.8361119,26.9732752 18.1768032,26.9732752 C19.008651,26.9732752 19.4266425,26.7674233 19.7255875,26.3906402 C19.9292154,26.1424746 20.1207595,25.8650128 20.2998315,25.5633098 C20.5902641,25.0739846 20.834042,24.5461895 21.0316085,24.0180898 C21.1497494,23.7022964 21.2254142,23.459325 21.245279,23.416883 C21.2543371,23.1904182 21.2127316,22.892692 21.0807203,22.6165136 C21.0043528,22.4567464 20.9027563,22.3191712 20.7818322,22.2146494 C19.9596496,21.5408835 17.5726464,19.6646503 17.0876417,19.3152403 C17.0327293,19.27568 16.9781922,19.2332102 16.908185,19.1764345 C16.8244403,19.1079806 16.7779486,19.0699138 16.7445179,19.0430362 C16.2156002,18.6177961 15.9655633,18.5966356 15.4189032,19.1245872 C14.831878,19.8646765 13.6909473,20.6600401 12.7853632,20.4960994 C11.9601725,20.2979364 9.5226001,17.8287512 8.5169707,16.4816683 C8.6129992,16.6103025 8.0819974,15.9029649 7.8892594,15.6421038 C7.5630173,15.2005515 7.2611381,14.7803039 6.9755788,14.3660035 C6.816798,14.135638 6.6666112,13.9121327 6.5256807,13.6959054 C5.6920365,12.4168598 5.230057,11.4886728 5.230057,10.8720972 C5.230057,10.1940347 5.3269136,9.748214 5.5626853,9.2872187 C5.6680424,9.0812179 6.1507092,8.3099046 6.1697423,8.2779981 C6.2214698,8.1883272 6.429154,7.8816647 6.4612932,7.8304079 C6.8801976,7.1623226 6.9041005,6.526825 6.2400834,5.4188535 C5.9795568,4.9425898 5.6744639,4.371924 5.2812068,3.627887 C5.2561835,3.5805374 5.2561835,3.5805374 5.231168,3.5331807 C5.0633652,3.2154784 4.5140217,2.1722467 4.469756,2.0883083 C4.1902178,1.5582359 4.0002342,1.2006279 3.8482514,0.9195974 C3.5714391,0.4077456 3.1712377,0.4077456 2.9150147,0.6227192 C2.8135802,0.7140643 1.9291512,1.4179124 1.9009353,1.4407279 C1.8510576,1.4811057 1.8510576,1.4811057 1.8014204,1.5214952 C1.3748226,1.8691056 1.0884898,2.1233975 0.9988923,2.2363571 C0.6293419,2.7022661 0.5,3.1031398 0.5,4.3177416 C0.5,5.9863911 1.0696709,8.3114675 2.2038208,10.9112682 Z" id="Path"></path>
        </g>
    </g>
</svg>