<?xml version="1.0" encoding="UTF-8"?>
<svg width="22px" height="28px" viewBox="0 0 22 28" version="1.1" xmlns="http://www.w3.org/2000/svg" xmlns:xlink="http://www.w3.org/1999/xlink">
    <!-- Generator: Sketch 60.1 (88133) - https://sketch.com -->
    <title>Path</title>
    <desc>Created with Sketch.</desc>
    <g id="Page-1" stroke="none" stroke-width="1" fill="none" fill-rule="evenodd">
        <g id="Artboard" transform="translate(-119.000000, -101.000000)" fill-rule="nonzero" stroke="#FFFFFF">
            <g id="Group" transform="translate(10.000000, 44.000000)">
                <g id="Text/Buttons" transform="translate(90.000000, 10.000000)">
                    <g id="Interactiv-Buttons" transform="translate(5.000000, 36.000000)">
                        <g id="Phone">
                            <path d="M16.2038208,21.9112682 C17.4291162,24.7162377 19.3862133,27.8238222 20.994581,29.7902071 C22.7792683,32.0402436 24.9369449,34.2581305 26.9593417,35.6702906 C29.5477381,37.4651107 30.8361119,37.9732752 32.1768032,37.9732752 C33.008651,37.9732752 33.4266425,37.7674233 33.7255875,37.3906402 C33.9292154,37.1424746 34.1207595,36.8650128 34.2998315,36.5633098 C34.5902641,36.0739846 34.834042,35.5461895 35.0316085,35.0180898 C35.1497494,34.7022964 35.2254142,34.459325 35.245279,34.416883 C35.2449758,34.4214976 35.2449758,34.4214976 35.2454094,34.4125926 C35.2543371,34.1904182 35.2127316,33.892692 35.0807203,33.6165136 C35.0043528,33.4567464 34.9027563,33.3191712 34.7818322,33.2146494 C33.9596496,32.5408835 31.5726464,30.6646503 31.0876417,30.3152403 C31.0327293,30.27568 30.9781922,30.2332102 30.908185,30.1764345 C30.8244403,30.1079806 30.7779486,30.0699138 30.7445179,30.0430362 C30.2156002,29.6177961 29.9655633,29.5966356 29.4189032,30.1245872 C28.831878,30.8646765 27.6909473,31.6600401 26.7853632,31.4960994 C25.9601725,31.2979364 23.5226001,28.8287512 22.5169707,27.4816683 C22.6129992,27.6103025 22.0819974,26.9029649 21.8892594,26.6421038 C21.5630173,26.2005515 21.2611381,25.7803039 20.9755788,25.3660035 C20.816798,25.135638 20.6666112,24.9121327 20.5256807,24.6959054 C19.6920365,23.4168598 19.230057,22.4886728 19.230057,21.8720972 C19.230057,21.1940347 19.3269136,20.748214 19.5626853,20.2872187 C19.6680424,20.0812179 20.1507092,19.3099046 20.1697423,19.2779981 C20.2214698,19.1883272 20.429154,18.8816647 20.4612932,18.8304079 C20.8801976,18.1623226 20.9041005,17.526825 20.2400834,16.4188535 C19.9795568,15.9425898 19.6744639,15.371924 19.2812068,14.627887 C19.2561835,14.5805374 19.2561835,14.5805374 19.231168,14.5331807 C19.0633652,14.2154784 18.5140217,13.1722467 18.469756,13.0883083 C18.1902178,12.5582359 18.0002342,12.2006279 17.8482514,11.9195974 C17.5714391,11.4077456 17.1712377,11.4077456 16.9150147,11.6227192 C16.8135802,11.7140643 15.9291512,12.4179124 15.9009353,12.4407279 C15.8510576,12.4811057 15.8510576,12.4811057 15.8014204,12.5214952 C15.3748226,12.8691056 15.0884898,13.1233975 14.9988923,13.2363571 C14.6293419,13.7022661 14.5,14.1031398 14.5,15.3177416 C14.5,16.9863911 15.0696709,19.3114675 16.2038208,21.9112682 Z M16.2038208,21.9112682 C16.2038369,21.9113051 16.203853,21.9113419 16.2038691,21.9113788 L16.2037725,21.9111576 C16.2037886,21.9111945 16.2038047,21.9112313 16.2038208,21.9112682 Z" id="Path"></path>
                        </g>
                    </g>
                </g>
            </g>
        </g>
    </g>
</svg>