<svg width="512" height="512" viewBox="0 0 512 512" fill="none" xmlns="http://www.w3.org/2000/svg">
<g clip-path="url(#clip0)">
<path d="M509.229 248.104L349.229 88.1045C344.866 83.7422 337.8 83.7422 333.438 88.1045C329.076 92.4667 329.076 99.5333 333.438 103.895L474.377 244.833H10.667C4.49486 244.833 -0.5 249.828 -0.5 256C-0.5 262.172 4.49486 267.167 10.667 267.167H474.377L333.438 408.104C329.076 412.467 329.076 419.533 333.438 423.895C335.619 426.075 338.478 427.166 341.334 427.166C344.19 427.166 347.048 426.075 349.229 423.895L348.876 423.541L349.23 423.895L509.23 263.895C513.591 259.533 513.591 252.467 509.229 248.104Z" fill="white" stroke="white"/>
</g>
<defs>
<clipPath id="clip0">
<rect width="512" height="512" fill="white"/>
</clipPath>
</defs>
</svg>
