<svg width="512" height="512" viewBox="0 0 512 512" fill="none" xmlns="http://www.w3.org/2000/svg">
<g clip-path="url(#clip0)">
<path d="M512 489.375L338.477 315.852C366.817 282.386 384 239.188 384 192C384 86.1248 297.875 0 192 0C86.1258 0 0 86.1248 0 192C0 297.876 86.1248 384 192 384C239.188 384 282.386 366.817 315.852 338.477L489.375 512L512 489.375ZM192 352C103.781 352 32.0003 280.219 32.0003 192C32.0003 103.781 103.781 32.0003 192 32.0003C280.219 32.0003 352 103.781 352 192C352 280.219 280.219 352 192 352Z" fill="white"/>
</g>
<defs>
<clipPath id="clip0">
<rect width="512" height="512" fill="white"/>
</clipPath>
</defs>
</svg>
