<svg width="73" height="73" viewBox="0 0 73 73" fill="none" xmlns="http://www.w3.org/2000/svg">
<g clip-path="url(#clip0)">
<circle cx="36.5" cy="36.5" r="36.5" fill="white"/>
<path d="M22.7662 2.67105C18.2381 4.5069 14.1751 7.20619 10.6911 10.6892C7.20609 14.1733 4.50986 18.2374 2.67303 22.7645C0.899753 27.1382 0 31.7601 0 36.501C0 41.2409 0.899753 45.8628 2.67303 50.2345C4.50986 54.7626 7.2071 58.8267 10.6911 62.3097C14.1751 65.7948 18.2371 68.4921 22.7662 70.3279C27.1399 72.1033 31.7607 73 36.5015 73C41.2424 73 45.8622 72.1002 50.2359 70.3279C54.7629 68.4921 58.8279 65.7948 62.3109 62.3097C65.7959 58.8267 68.4932 54.7646 70.329 50.2345C72.1023 45.8628 73 41.2409 73 36.501C73 31.7601 72.1013 27.1382 70.329 22.7645C68.4932 18.2374 65.7939 14.1723 62.3109 10.6892C58.8279 7.20619 54.7669 4.5069 50.2359 2.67105C45.8622 0.898756 41.2424 0 36.5015 0C31.7607 0 27.1399 0.898756 22.7662 2.67105ZM9.1226 51.8666C7.36446 50.7631 5.7445 49.4921 4.31014 47.9952C2.11926 41.83 1.74806 35.1554 3.19957 28.8197C3.88245 27.4731 4.65915 26.1799 5.53772 24.9412C5.80905 24.5589 6.06022 24.1605 6.35072 23.7893L14.5877 28.6634C14.5877 28.7279 14.5877 28.7985 14.5877 28.8702C14.5665 33.3004 15.0164 37.6983 15.9121 42.0327C15.9151 42.0529 15.9182 42.064 15.9222 42.0822L9.53415 52.0986C9.39495 52.028 9.25676 51.9513 9.1226 51.8666ZM33.6136 68.7998C35.0349 69.525 36.4965 70.1373 37.9984 70.6356C31.6184 70.913 25.1749 69.4181 19.4788 66.1499L33.2868 68.6101C33.3927 68.6777 33.5007 68.7423 33.6136 68.7998ZM33.5632 66.3072L17.2688 63.4032C15.3624 61.0882 13.6476 58.6391 12.1739 56.0215C11.7987 55.3557 11.3801 54.7091 11.0623 54.0141L17.4443 44.0078C17.5855 44.0431 17.7429 44.0804 17.9214 44.1278C21.9138 45.196 25.9768 45.9556 30.0681 46.5507C30.3071 46.584 30.5069 46.6133 30.6773 46.6314L38.3272 59.8586C36.9998 61.7247 35.6572 63.5807 34.2854 65.4166C34.0575 65.7222 33.8154 66.0157 33.5632 66.3072ZM60.6728 60.6726C59.3756 61.9708 57.9987 63.1409 56.5573 64.1839C56.3183 62.2734 55.9057 60.4013 55.3237 58.5725L63.486 43.3451C65.7344 42.3212 67.9031 41.1602 69.9164 39.7208C70.1797 39.5342 70.3986 39.3254 70.5681 39.0974C69.977 46.9663 66.6785 54.6678 60.6728 60.6726ZM60.3107 40.9242C60.6143 41.5032 60.9139 42.0882 61.2145 42.6813L53.3305 57.3883C53.2851 57.3984 53.2418 57.4084 53.1964 57.4145C48.9346 58.2104 44.6386 58.634 40.3063 58.6542L32.4385 45.0498C33.6631 42.7762 34.8765 40.4935 36.0799 38.2098C36.8969 36.6604 37.6998 35.1009 38.5018 33.5425L54.7851 31.87C56.7792 34.7953 58.6685 37.7831 60.3107 40.9242ZM57.0072 23.4796C56.2345 25.5202 55.4074 27.5397 54.5853 29.5631L38.7227 31.1922C38.533 30.942 38.3363 30.6959 38.1295 30.4609C36.2564 28.3396 34.3712 26.2314 32.4889 24.1171C32.5061 24.096 32.5232 24.0798 32.5404 24.0606C31.7808 23.3021 31.0193 22.5436 30.2597 21.783L34.6758 8.48725C34.9804 8.40655 35.2871 8.33897 35.5967 8.30568C37.9974 8.06157 40.4011 7.78519 42.8079 7.64599C44.2816 7.56327 45.7633 7.51586 47.2622 7.62178L58.1884 19.9371C57.8121 21.1253 57.445 22.3166 57.0072 23.4796ZM60.6728 12.3274C63.6868 15.3434 66.0209 18.7851 67.6711 22.4618C65.6295 21.0567 63.4467 19.9007 61.1519 18.9586C60.7948 18.8113 60.4287 18.6812 60.0565 18.5531L49.3018 6.4315C49.3765 5.90799 49.4158 5.38346 49.4319 4.8549C53.5232 6.52027 57.3582 9.01379 60.6728 12.3274ZM25.5542 4.21841C25.5966 4.24968 25.6167 4.2759 25.6409 4.28296C28.0991 5.13229 30.3354 6.38309 32.4436 7.86689L28.318 20.2911C28.2968 20.2972 28.2766 20.3032 28.2565 20.3123C27.4122 20.6613 26.5518 20.974 25.7206 21.3523C22.2961 22.9087 18.9573 24.6326 15.8122 26.6994L7.6711 21.8829C7.6832 21.6287 7.72658 21.3704 7.81332 21.1404C8.36003 19.6839 8.89767 18.2192 9.51599 16.7919C9.9921 15.6924 10.5348 14.6303 11.1269 13.5923C11.5142 13.1646 11.9157 12.741 12.3292 12.3274C16.1955 8.46203 20.7649 5.71734 25.6298 4.09433C25.6046 4.13367 25.5784 4.17503 25.5542 4.21841Z" fill="black"/>
</g>
<defs>
<clipPath id="clip0">
<rect width="72.999" height="73" fill="white"/>
</clipPath>
</defs>
</svg>
