<?xml version="1.0" encoding="UTF-8"?>
<svg width="30px" height="30px" viewBox="0 0 30 30" version="1.1" xmlns="http://www.w3.org/2000/svg" xmlns:xlink="http://www.w3.org/1999/xlink">
    <!-- Generator: Sketch 60.1 (88133) - https://sketch.com -->
    <title>iconfinder_Browser_3336955</title>
    <desc>Created with Sketch.</desc>
    <g id="Page-1" stroke="none" stroke-width="1" fill="none" fill-rule="evenodd">
        <g id="Artboard" transform="translate(-321.000000, -100.000000)" fill="#FFFFFF" fill-rule="nonzero">
            <g id="Group" transform="translate(10.000000, 44.000000)">
                <g id="Text/Buttons" transform="translate(90.000000, 10.000000)">
                    <g id="Interactiv-Buttons" transform="translate(5.000000, 36.000000)">
                        <g id="Website" transform="translate(206.000000, 0.000000)">
                            <g id="iconfinder_Browser_3336955" transform="translate(10.000000, 10.000000)">
                                <path d="M27.9972931,8.03490641 C25.699555,3.7627904 22.1768606,1.07754227 17.4112515,0.244914607 C12.7222022,-0.575285782 8.54733209,0.673177747 4.98777562,3.86125268 C2.53030169,6.05992506 0.983038291,8.83216413 0.347875797,12.1014944 C0.225947283,12.7314618 0.179633351,13.3757684 0.0974024927,14.0133834 C0.085115123,14.1089778 0.0662114774,14.2045723 0.0510885609,14.3001667 L0.0510885609,15.8822549 C0.126703143,16.4500859 0.179633351,17.0226967 0.281713038,17.5847921 C1.04731069,21.7909479 3.20138111,25.0899124 6.68910373,27.491245 C8.67633999,28.860783 10.975165,29.6969673 13.3696521,29.9212559 C16.4292071,30.2271582 19.3243005,29.644032 22.0199603,28.1326838 C24.8970952,26.5190494 27.0152487,24.1817651 28.3904889,21.1609805 C29.0236267,19.7570371 29.431698,18.2600882 29.5993771,16.7263539 C29.9547656,13.6615958 29.4500383,10.7364056 27.9972931,8.03490641 Z M27.0672337,8.79966202 L27.3507884,9.41337839 L26.990674,9.44205673 L26.990674,8.81686902 L27.0672337,8.79966202 Z M24.3337666,6.47767281 C24.7392498,6.35244407 24.9074922,6.095295 24.7780022,5.64408919 L24.8602331,5.64408919 L25.4500268,6.31325035 C25.3460568,6.6000337 25.2023891,6.80842961 24.8479457,6.74246943 C24.6986069,6.71474704 24.5407615,6.74246943 24.387642,6.72908621 C24.3268648,6.71916407 24.274672,6.67993045 24.247755,6.62393232 C24.2491014,6.56330314 24.2817343,6.50781222 24.3337666,6.47767281 Z M6.92823484,4.56578379 L7.67870958,4.42239211 C7.72785905,4.83918392 7.61160163,4.90036437 6.93485112,4.83344825 C6.92289847,4.79255121 6.91467257,4.75063339 6.91027638,4.70821952 C6.91170421,4.65942277 6.91707818,4.61082605 6.92634448,4.56291595 L6.92823484,4.56578379 Z M7.72691387,5.25693167 C7.69761322,5.33531912 7.67398366,5.47775485 7.63806674,5.48062268 C7.41500372,5.50165346 7.18910515,5.49113807 6.96415177,5.49113807 L6.95091922,5.36782123 L7.6560252,5.18523583 L7.72691387,5.25693167 Z M26.4906725,10.9792155 C26.0502176,10.6245601 25.985,10.6245601 25.4150551,10.7650839 L25.38859,11.1732722 L23.7335758,10.6647098 L23.7335758,9.88943876 C23.0719482,10.0213591 22.4103206,9.8817912 21.795007,10.2240193 C21.5870669,10.3406446 21.2581434,10.2096802 21.0067249,10.2765963 C20.6976111,10.3602391 20.405273,10.497721 20.1428283,10.6828727 C20.0558716,10.7450091 20.094624,11.0126736 20.1059662,11.1847436 C20.1210891,11.4371129 20.0029413,11.5604298 19.7052089,11.7019095 C19.4065883,11.847874 19.1386157,12.0507362 18.9159817,12.2993749 C18.7949984,12.4303393 18.5643739,12.4676211 18.6484951,12.727638 C18.7326164,12.9876549 18.7108772,12.9790514 19.0067192,13.0297165 C18.9840348,13.21039 19.0501976,13.4206978 18.8063406,13.5153363 C18.7892268,13.5230122 18.7747523,13.5356552 18.7647526,13.5516622 C18.6702343,13.7084371 18.7581363,14.7322536 18.8829003,14.8766013 C19.1938653,15.2369923 19.5256243,15.5801764 19.8101242,15.9606423 C20.0369679,16.2655886 20.3252485,16.2110998 20.6399942,16.1852893 C20.9547399,16.1594788 21.2477464,16.1308005 21.5483144,16.0830032 C21.6083037,16.0765674 21.6661105,16.0566435 21.717502,16.0246906 C22.1163689,15.742687 22.3583356,15.7512905 22.7515314,16.0715319 C22.8203656,16.1207195 22.9003202,16.1516192 22.9840463,16.1613907 C23.2014382,16.1958047 23.4207205,16.2158795 23.6740293,16.2455138 C23.646619,16.5667112 23.6088118,16.8726134 23.5993599,17.1804275 C23.5932767,17.3219688 23.6218478,17.4628391 23.682536,17.5905277 C23.915996,18.0388657 24.1797019,18.4709526 24.4103263,18.9202465 C24.4580798,19.0367508 24.4604437,19.1672218 24.4169426,19.2854173 C24.3235732,19.4992195 24.2191437,19.707904 24.1040873,19.910605 C23.9513854,20.1703294 24.0038699,20.5032987 24.2288513,20.7021271 C24.3918592,20.8279852 24.4749837,21.0330454 24.4462433,21.238412 C24.3762998,21.7574898 24.4831054,22.2172991 24.8592879,22.6035007 C24.9238982,22.697252 24.9570311,22.809511 24.9538061,22.9237421 C24.9679839,23.1560367 24.9538061,23.3892871 24.9538061,23.632097 L25.3488923,23.6636432 C21.6910369,28.4596168 14.1333594,30.6659367 7.79874773,26.7064146 C1.16262292,22.5576154 0.12103205,14.7035753 2.38474361,9.68391069 C2.3893798,9.75552986 2.3893798,9.82737903 2.38474361,9.8989982 C2.32803268,10.2402704 2.42727682,10.4725649 2.78172017,10.5805866 C2.85638957,10.6025734 2.90459387,10.7430972 2.94712707,10.8367798 C2.96315089,10.8936415 2.96315089,10.9538999 2.94712707,11.0107617 C2.84221184,11.608227 3.09173996,12.0995825 3.42727967,12.5479204 C3.5217979,12.6683694 3.72501209,12.6989597 3.87813162,12.7716115 L3.98210167,12.6913121 C3.93578774,12.5297575 3.92633592,12.3414364 3.83559842,12.2133399 C3.55204373,11.8032397 3.34410363,11.3788003 3.39136274,10.8396476 L3.6125354,10.8195728 C3.63711014,10.8472952 3.65979451,10.8606784 3.6607397,10.8750175 C3.68058852,11.5374871 4.03881261,12.0441377 4.41026924,12.5440967 C4.50478747,12.6712373 4.54448513,12.7773471 4.45280245,12.9369899 C4.41538288,13.0442316 4.41841195,13.161668 4.46130909,13.2667907 C4.6900432,13.968454 5.33276715,13.9694099 5.88853433,14.0955946 C6.01235321,14.123317 6.16169201,14.020075 6.30157899,13.9913966 C6.36189293,13.9939264 6.42120347,14.0078691 6.47643771,14.0325023 L6.45186297,14.3240653 C6.48494435,14.3450961 6.50762873,14.3718626 6.53220347,14.3737744 C7.10922892,14.3982957 7.63532795,14.7148189 7.93201843,15.2159616 C8.0936446,15.4711987 8.32143353,15.55341 8.61254967,15.5648813 C9.26567063,15.5897359 9.27417727,15.6002513 9.31103938,16.2569851 C9.3110743,16.3827583 9.25391128,16.5015588 9.15602948,16.5791384 C8.75905292,16.8018735 8.64090514,17.1135114 8.57474238,17.5752326 C8.49723743,18.120121 8.66926061,18.4690407 8.98873222,18.843771 C9.23920552,19.1382019 9.56529341,19.4029985 9.58986815,19.8484687 C9.58986815,19.8972218 9.68438638,19.9440631 9.74582323,19.9842128 C10.0804178,20.186873 10.4235189,20.377106 10.7496068,20.5931494 C10.8148244,20.6371229 10.844125,20.7766908 10.844125,20.8732412 C10.8526317,21.4984289 10.8554672,22.1236166 10.844125,22.7478483 C10.844125,22.9390373 10.8772064,23.0747814 11.1276797,23.0833849 C11.0775851,23.3892871 11.0170934,23.6722467 10.9925187,23.95903 C10.9811765,24.0880825 11.0010253,24.2639763 11.0794754,24.3500113 C11.3636449,24.6364244 11.4721574,25.0560279 11.3630301,25.4464797 C11.2930866,25.7428225 11.3847693,26.0057072 11.5274918,26.2771955 C11.7866544,26.7776013 12.1428253,27.2200816 12.5747538,27.578236 C12.8743766,27.8267815 13.1966837,27.7072885 13.5104843,27.7254514 C13.5256072,27.7254514 13.6050025,27.4845534 13.5643596,27.4262408 C13.1702186,26.8851762 13.1645475,26.8899559 13.1976289,26.2619004 C13.1976289,26.2236626 13.1976289,26.1844689 13.1976289,26.1873367 L12.6135063,25.8976855 L13.0180443,25.3355901 C12.9934203,25.3016584 12.9662444,25.2696987 12.9367586,25.2399957 C12.8365693,25.1721236 12.73638,25.1052075 12.6352455,25.0382914 C12.7498556,24.9764638 12.8675281,24.9206269 12.9877985,24.8710011 C13.4717318,24.6979751 13.9698428,24.579438 14.2259872,24.0259462 C14.3743809,23.7066607 14.6324156,23.4342165 14.8649305,23.1655961 C15.0539669,22.9476408 15.1248556,22.7411567 15.0208855,22.4553293 C14.9329836,22.2134754 14.8460268,21.9381633 15.0709802,21.7144723 C15.1604876,21.6301786 15.2703351,21.5711679 15.3895066,21.5433583 C15.6239118,21.4888694 15.8828918,21.5079883 16.1002837,21.4171736 C16.3932902,21.2948127 16.5256157,21.0414874 16.521835,20.6944795 C16.5260288,20.3529093 16.5611472,20.0124455 16.6267502,19.6773546 C16.6630465,19.5195499 16.7319826,19.3713113 16.8290192,19.2423998 C17.0360142,18.9431892 17.3290207,18.6917758 17.2940489,18.2357903 C16.9103049,18.1956406 16.6730642,17.9490069 16.4963151,17.6010431 C16.4613433,17.5322151 16.3006624,17.4949333 16.200473,17.498757 C15.6163504,17.5245676 15.0520766,17.464343 14.515213,17.2043261 C14.3822354,17.1572089 14.2902037,17.0339822 14.281753,16.8917323 C14.2292411,16.6194736 14.1562499,16.3516679 14.0634159,16.0906508 C14.0467035,16.0074985 13.9962862,15.9352421 13.924424,15.8914521 C13.8525619,15.8476621 13.7658387,15.8363506 13.685343,15.8602682 C13.6484809,15.8669598 13.6068928,15.8535765 13.5700307,15.8602682 C13.1919578,15.9357878 12.9547171,15.7723213 12.8044331,15.4243575 C12.7030651,15.1547575 12.4748655,14.9544694 12.1966809,14.8909404 C12.0019733,15.1997105 11.3601946,15.2236091 11.1626515,14.9043237 C11.004806,14.6490865 10.7477164,14.7026194 10.5322149,14.6175403 C10.2543313,14.5095186 10.0690756,14.6079809 9.93580486,14.846967 C9.6777701,15.3086882 9.31482011,15.3717805 8.82332532,15.2532434 C8.50101816,15.1758119 8.36302155,15.0859531 8.38759629,14.7399012 C8.40555475,14.4808402 8.35451491,14.2169996 8.33277571,13.9359519 L7.58608171,13.7935161 C7.61916309,13.4809223 8.01708483,13.2428921 7.74487234,12.8624262 C7.46698874,13.049154 7.18910515,13.2355632 6.91122156,13.4216537 C6.7439243,13.5334992 6.18343121,13.5593097 6.09174852,13.4216537 C5.94997118,13.2113459 5.78456428,12.985743 5.91499944,12.6970478 C6.04543459,12.4083525 6.11915881,12.0278866 6.33749592,11.814711 C6.60225022,11.5632877 6.93244332,11.3934924 7.28929448,11.3252674 C7.75621452,11.2440121 8.24770931,11.3051926 8.77795657,11.3051926 C8.67871243,11.7535306 8.915008,11.9494992 9.33277857,12.0278866 C9.34342864,11.9268428 9.34342864,11.8249401 9.33277857,11.7238963 C9.22786334,11.2526156 9.48400773,10.9753917 9.8271089,10.7392734 C9.96226997,10.643679 10.0964859,10.5480845 10.237318,10.4658733 C10.4405322,10.3435124 10.6333494,10.2230634 10.6153909,9.93341221 C10.6153909,9.87796742 10.6683211,9.81009536 10.7099092,9.76229814 C11.1172827,9.32256366 11.5152045,8.87996136 12.0738072,8.60847312 C12.3034865,8.49758355 12.4698386,8.24234637 12.648478,8.03490641 C12.8271175,7.82746645 12.9953599,7.77775734 13.2014096,8.0024043 L13.4140757,7.74716711 C13.3162638,7.7305724 13.2209653,7.70133606 13.130521,7.66017616 C13.0643582,7.6181146 12.9783466,7.52825582 12.9840177,7.46898726 C12.9896888,7.4097187 13.0870426,7.27110675 13.140918,7.27779836 C13.2817501,7.27779836 13.4547185,7.30456481 13.5539626,7.39059981 C13.7335473,7.54737471 14.1012232,7.57127332 14.2798626,7.40015926 C14.3318477,7.35045014 14.4273111,7.34662636 14.5029257,7.32177181 C14.4925286,7.41736626 14.5142678,7.53494743 14.4660635,7.59803977 C14.2770271,7.84084968 14.2968759,7.92114901 14.5898824,8.01387563 C14.8063292,8.08174769 15.0256115,8.14388408 15.241113,8.20506453 C15.3630415,7.9316644 15.2836462,7.79018462 15.0407344,7.72040067 C14.9940624,7.70611596 14.9504583,7.68309286 14.9121896,7.65252861 C14.8394105,7.59612788 14.7704122,7.53399149 14.7004687,7.47376698 C14.7776985,7.41255366 14.8606354,7.3590874 14.9481065,7.31412425 C15.1872376,7.2185298 15.303495,6.79791422 15.0936646,6.70996732 C14.6465934,6.52451409 14.6210734,6.17655029 14.6475385,5.78365709 C14.6473523,5.75429569 14.6435421,5.72507268 14.6361964,5.69666614 C14.6361964,5.68901859 14.6257993,5.68328292 14.5983891,5.65173675 C14.463228,5.71578503 14.3205055,5.79130465 14.1721119,5.85152915 C14.0237182,5.91175366 13.8753246,5.95285927 13.6768363,6.01977539 L13.7297665,5.36208556 C13.426363,5.28752189 13.140918,5.20626661 12.8498018,5.14890994 C12.6843949,5.11640782 12.383827,5.39171984 12.3772107,5.56952552 C12.36448,5.73497244 12.36448,5.90116975 12.3772107,6.06661667 C12.4008403,6.28743985 12.3365679,6.42413991 12.1068886,6.45568608 C11.7732392,6.50157142 11.5473407,6.67364143 11.4528224,7.01491362 C11.4008374,7.20036685 11.274183,7.27971025 11.0586814,7.21279413 L11.0586814,6.50157142 C10.8941394,6.48398653 10.7309065,6.45556653 10.5700222,6.41649236 C10.4045952,6.37368653 10.2476337,6.30255676 10.1059377,6.20618456 C9.99565505,6.12026202 9.93571819,5.98383504 9.94658468,5.84346874 C9.95745117,5.70310243 10.037652,5.5777727 10.1598131,5.51025696 C10.6446916,5.24068061 11.134296,4.97875182 11.6569818,4.6948363 L11.7949784,5.20722255 L12.4216343,4.8602147 L12.316719,4.66902579 C12.5671923,4.50173551 12.7628451,4.31628227 12.9953599,4.22929132 C13.2802655,4.12202961 13.5808574,4.06355284 13.8847764,4.05626536 C14.0256086,4.05626536 14.1683311,4.2245116 14.3630387,4.35069627 L13.3308996,4.92999865 L14.6097312,5.24068061 C14.6484338,5.18085767 14.6801515,5.1167001 14.7042495,5.04949171 C14.7477279,4.83918392 14.8706016,4.76270836 15.0757061,4.79521047 C15.3668223,4.84778742 15.4944219,4.69292441 15.5426262,4.41283267 L15.1645532,4.29525149 C15.3176728,3.82779463 14.9849686,3.73315612 14.6721133,3.58116094 C14.1995221,3.35364615 13.737328,3.16341319 13.2108615,3.32783565 C13.0019584,3.39468632 12.7987175,3.47844284 12.6031093,3.57829311 C12.5567953,3.60123578 12.534111,3.70830156 12.5322206,3.77712957 C12.5322206,3.92052124 12.5435628,4.06391292 12.5558501,4.29142771 C12.3450745,4.2073046 12.1021627,4.18818571 12.0322192,4.0677367 C11.8280598,3.71308129 12.2704051,3.63278195 12.4102921,3.33739509 C12.0990337,3.32257454 11.7871701,3.32704398 11.476452,3.35077832 C11.3649205,3.36511748 11.2713474,3.52571616 11.1220086,3.66337217 L11.4802327,3.76757012 C11.5312726,4.00751219 11.4490417,4.12509337 11.196678,4.12509337 C11.0426133,4.12509337 10.8686998,4.10023881 10.7902496,4.31628227 C10.7732364,4.36216761 10.621062,4.36981516 10.5303245,4.37363894 C10.3488495,4.38224244 10.1673745,4.37363894 9.96321515,4.37363894 L9.90650421,3.90809397 C10.3790954,3.97787791 10.7637845,3.83926596 11.0038608,3.40431121 C10.8753161,3.25900764 10.760949,3.26856709 10.6125554,3.42056227 C10.3072615,3.73411206 9.89232648,3.69109456 9.64185317,3.34121887 C9.45943299,3.08693763 8.88570735,2.96553268 8.61916595,3.14238241 C8.38764672,3.29367486 8.17720569,3.47564745 7.99345528,3.68344701 L8.35262454,3.68344701 C8.69289016,3.68344701 8.73825891,3.75992257 8.5898653,4.05339753 C8.83183196,4.21495215 9.25149289,3.88228346 9.41217388,4.37746272 L8.54922246,4.37746272 L8.5737972,4.28760394 C8.10120606,4.00082058 7.58891726,3.81823518 6.98683615,3.84595757 C11.2789089,0.49154829 18.5568125,-0.0504722463 23.8791339,4.70630763 C23.7279047,4.82484475 23.5955792,4.94146998 23.4471856,5.04088821 C23.2666558,5.16324911 23.0539898,5.24450439 22.8961443,5.38885201 C22.7146693,5.55518635 22.8214749,5.7473312 23.0360313,5.86682426 C23.190096,5.94999144 23.2827239,6.15360762 23.4330078,6.33332518 L23.9273382,6.16029923 L24.0218564,6.77305966 C23.7383017,6.77305966 23.4632537,6.77879533 23.1919864,6.77305966 C22.983794,6.7609622 22.7909518,6.88382077 22.7118338,7.0789619 C22.5734328,7.40842097 22.2519364,7.62066055 21.8980318,7.61620272 C21.8167461,7.61620272 21.7089954,7.74525522 21.6683525,7.83893779 C21.6306359,7.96300836 21.6093415,8.09158675 21.6050253,8.22131559 L21.88858,8.33698488 L21.8167461,8.65244656 C21.4386732,8.65244656 21.0842299,8.65244656 20.726951,8.65244656 C20.4103149,8.65244656 20.3602203,8.90003619 20.3564395,9.13806637 C20.3564395,9.32925528 20.3564395,9.55007846 20.4509578,9.71163308 C20.5256272,9.84546531 20.7212799,9.91524926 20.8696735,9.99841643 C20.9140971,10.023271 20.9830954,10.0041521 21.0407515,10.0041521 C21.484042,10.0041521 21.9537976,10.0873193 22.1277111,9.47838262 C22.1749702,9.31300422 22.3536097,9.19159927 22.4500183,9.03291248 C22.5813986,8.8206928 22.733573,8.70119973 22.9925529,8.80061796 C23.0738195,8.80789275 23.1546459,8.7824757 23.2175063,8.72987807 C23.3195262,8.64978916 23.4164427,8.56326326 23.5076772,8.47081711 C23.7279047,9.00232225 24.2912334,9.09982859 24.641896,9.47455884 C24.5757332,9.77663731 24.3063563,9.57015329 24.1409494,9.66574774 C24.1919892,9.9076017 24.3791353,9.95826676 24.5719525,9.93054437 C24.7647697,9.90282198 24.9367929,9.81965481 24.8942597,9.54816657 C24.8810271,9.46117562 24.9471899,9.36175739 24.9831068,9.24704405 C24.6778129,8.93540614 24.0379245,8.91724319 24.0728963,8.24043448 C24.2534261,8.24999393 24.4793246,8.19741698 24.6248827,8.28345198 C24.8687397,8.4277996 25.0643925,8.65818223 25.2742229,8.85701869 C25.3025784,8.88474108 25.2997429,8.95261314 25.3063591,8.99658659 C25.3763026,9.50323718 25.4273425,9.59214002 25.8422775,9.92002898 C26.0190266,9.62750996 25.8744137,9.13902232 26.4037158,9.03291248 C26.4178935,9.14093421 26.435852,9.25086783 26.446249,9.36080144 C26.4850014,9.79862403 26.7354747,10.0500374 27.1626971,10.0070199 C27.4037517,9.98416803 27.6228944,10.1492615 27.67026,10.3893977 C27.7410025,10.6561783 27.8261975,10.9188223 27.9254592,11.1761401 C27.4131704,11.1015764 26.933963,11.3338709 26.4897273,10.9763477 L26.4906725,10.9792155 Z M8.14090371,6.77879533 L8.81576386,6.65643443 C8.80631204,7.03403251 8.72880709,7.24720814 8.37530892,7.25389975 L8.14090371,6.77879533 Z M9.97455734,8.64862279 L9.97455734,8.25764148 L10.3724791,8.25764148 C10.4443129,8.54538078 10.3450688,8.64288712 9.97455734,8.64575495 L9.97455734,8.64862279 Z M9.70612557,9.23652866 C9.76283651,8.87326975 10.0416653,8.8637103 10.2845771,8.78819068 C10.3639724,9.18777549 10.2354276,9.28910561 9.70518039,9.23366082 L9.70612557,9.23652866 Z M10.0152002,8.15344353 L8.94997974,8.09513091 C9.05300461,7.77202167 9.41311906,7.60759922 9.8006438,7.69363422 C9.98022843,7.72900417 10.0860888,7.88099934 10.0152002,8.14961975 L10.0152002,8.15344353 Z M9.66926346,8.28154009 L9.13996138,9.03004464 C8.89326881,9.00805792 8.86963925,8.87709352 8.92162428,8.68590462 C9.0057455,8.37044293 9.24960253,8.22131559 9.66926346,8.27867226 L9.66926346,8.28154009 Z M10.5860903,8.56067589 C11.1702129,8.69928784 11.123899,8.72701024 11.0586814,8.94305369 C10.6692663,9.05585515 10.4480937,8.87135786 10.5860903,8.55780806 L10.5860903,8.56067589 Z" id="Shape"></path>
                                <path d="M21.2602073,6.85147664 C21.4013355,6.95776195 21.5424637,7.07837785 21.7456882,7.24556822 C21.0866197,7.43903135 21.0852084,7.44022557 21.1360145,7.96209835 C22.1775405,8.06599522 22.5331835,7.96926365 22.7886255,7.50949015 C21.9968964,7.23123761 21.8360103,6.60188531 21.6596001,6 C21.569278,6 21.5255283,6 21.4831898,6.00955374 C21.1924658,6.03940916 20.8989192,6.07165301 20.82271,6.3749841 C20.7465008,6.67831519 21.0753294,6.71891857 21.2602073,6.85147664 Z" id="Path"></path>
                                <path d="M21.1522746,8 C20.9771486,7.99811782 20.8022821,7.98626553 20.6285595,7.96450304 L20.1027744,7.90365112 L20.060339,7.38640974 C20.0264774,7.15361993 20.049173,6.91628512 20.1265796,6.69371197 C19.8798023,6.48834181 19.7714377,6.164691 19.8460919,5.85598377 C19.9982384,5.15618661 20.6637498,5.07505071 20.8811019,5.04462475 L20.990813,5.03549696 L21.5352283,5 L21.7194601,5.51622718 C21.8509064,6.05273834 21.9264621,6.26470588 22.1624444,6.36105477 L22.7886255,6.61561866 L22.4977876,7.22109533 C22.1976347,7.85294118 21.6832347,8 21.1522746,8 Z" id="Path"></path>
                                <path d="M21.6554094,7.58785136 C21.7614366,7.47948185 21.8139836,7.32205866 21.7968447,7.16413206 C21.7793023,7.0798697 21.5622156,6.99319984 21.4394191,7.00042233 C21.0348484,7.02329354 20.7519779,7.48192154 20.8221473,7.97305073 C21.2091756,8.09342553 21.4185875,7.78285854 21.6554094,7.58785136 Z" id="Path"></path>
                                <path d="M20.5472998,8 C20.4468871,7.99962197 20.3470052,7.9847344 20.2504838,7.95575907 L19.8966939,7.85092731 L19.83972,7.47103238 C19.7814759,7.10140553 19.8756429,6.72326039 20.0988596,6.4304088 C20.2929418,6.17429281 20.5827583,6.0177279 20.8946572,6.00050239 C21.1317424,5.9908848 21.6748329,6.11687527 21.7823483,6.59294613 C21.84977,6.95343621 21.7214454,7.32342203 21.4487749,7.55470544 C21.4202879,7.5768259 21.3927199,7.60183165 21.3642329,7.62779915 C21.2181223,7.75475138 20.9433607,8 20.5472998,8 Z" id="Shape"></path>
                                <path d="M13.4989935,8.84098717 C13.2939588,8.89873295 13.094902,8.96268939 12.9027399,9.03256194 C12.9063082,9.08476743 12.9613298,9.13174925 13.0462622,9.15511276 C13.1311947,9.17847627 13.2325241,9.17450402 13.3105774,9.14475127 C13.5323837,9.07914347 13.6993347,8.96039336 13.8913284,8.8639499 C13.7709603,8.82850575 13.6302215,8.82026854 13.4989935,8.84098717 L13.4989935,8.84098717 Z" id="Path"></path>
                                <path d="M13.876039,9.99998658 C13.7198506,10.000832 13.5659607,9.96172352 13.4285452,9.88624968 C13.1503284,9.72967768 12.9676545,9.44195862 12.9418956,9.11975644 L12.9027399,8.67282492 L13.4699383,8.33165582 C13.6130045,8.23645213 13.7625459,8.15170452 13.9174322,8.07805346 L13.9174322,8.07805346 C14.207398,7.96488474 14.5299712,7.97513181 14.81242,8.10648421 L15.8685055,8.52043605 L15.0305732,9.29488991 C14.9858239,9.33696743 14.9421932,9.38131942 14.8996813,9.42680863 C14.7383618,9.60787784 14.5495054,9.76146076 14.3403139,9.88170076 C14.1971575,9.95848706 14.0378997,9.99905727 13.876039,9.99998658 L13.876039,9.99998658 Z" id="Shape"></path>
                            </g>
                        </g>
                    </g>
                </g>
            </g>
        </g>
    </g>
</svg>